<svg width="322" height="53" viewBox="0 0 322 53" fill="none" xmlns="http://www.w3.org/2000/svg">
<path d="M26.1453 2.25976L32.9319 16.0125L33.1646 16.4841L33.6849 16.5596L48.8618 18.7643L37.8793 29.4686L37.5028 29.8356L37.5917 30.3538L40.1849 45.4691L26.6107 38.332L26.1453 38.0873L25.6799 38.332L12.1057 45.4691L14.6989 30.3538L14.7878 29.8356L14.4113 29.4686L3.4288 18.7643L18.6057 16.5596L19.126 16.4841L19.3587 16.0125L26.1453 2.25976Z" fill="#FAFAFA" stroke="#333333" stroke-width="2"/>
<path d="M93.573 2.25976L100.36 16.0125L100.592 16.4841L101.113 16.5596L116.29 18.7643L105.307 29.4686L104.931 29.8356L105.019 30.3538L107.613 45.4691L94.0384 38.332L93.573 38.0873L93.1077 38.332L79.5335 45.4691L82.1267 30.3538L82.2156 29.8356L81.839 29.4686L70.8565 18.7643L86.0334 16.5596L86.5537 16.4841L86.7864 16.0125L93.573 2.25976Z" fill="#FAFAFA" stroke="#333333" stroke-width="2"/>
<path d="M161.001 2.25976L167.787 16.0125L168.02 16.4841L168.54 16.5596L183.717 18.7643L172.735 29.4686L172.358 29.8356L172.447 30.3538L175.04 45.4691L161.466 38.332L161.001 38.0873L160.535 38.332L146.961 45.4691L149.554 30.3538L149.643 29.8356L149.267 29.4686L138.284 18.7643L153.461 16.5596L153.981 16.4841L154.214 16.0125L161.001 2.25976Z" fill="#FAFAFA" stroke="#333333" stroke-width="2"/>
<path d="M228.427 2.25976L235.214 16.0125L235.446 16.4841L235.967 16.5596L251.144 18.7643L240.161 29.4686L239.785 29.8356L239.873 30.3538L242.467 45.4691L228.892 38.332L228.427 38.0873L227.962 38.332L214.387 45.4691L216.981 30.3538L217.07 29.8356L216.693 29.4686L205.711 18.7643L220.887 16.5596L221.408 16.4841L221.64 16.0125L228.427 2.25976Z" fill="#FAFAFA" stroke="#333333" stroke-width="2"/>
<path d="M295.855 2.25976L302.641 16.0125L302.874 16.4841L303.394 16.5596L318.571 18.7643L307.589 29.4686L307.212 29.8356L307.301 30.3538L309.894 45.4691L296.32 38.332L295.855 38.0873L295.389 38.332L281.815 45.4691L284.408 30.3538L284.497 29.8356L284.121 29.4686L273.138 18.7643L288.315 16.5596L288.835 16.4841L289.068 16.0125L295.855 2.25976Z" fill="#FAFAFA" stroke="#333333" stroke-width="2"/>
</svg>
